PathFileType	4	(X/Y/Z)	pose_F01_0-94.trc
DataRate	CameraRate	NumFrames	NumMarkers	Units	OrigDataRate	OrigDataStartFrame	OrigNumFrames
30	30	15	21	m	30	18	94
Frame#	Time	CHip			RHip			RKnee			RAnkle			RBigToe			RSmallToe			RHeel			LHip			LKnee			LAnkle			LBigToe			LSmallToe			LHeel			Neck			Nose			RShoulder			RElbow			RWrist			LShoulder			LElbow			LWrist			
		X1	Y1	Z1	X2	Y2	Z2	X3	Y3	Z3	X4	Y4	Z4	X5	Y5	Z5	X6	Y6	Z6	X7	Y7	Z7	X8	Y8	Z8	X9	Y9	Z9	X10	Y10	Z10	X11	Y11	Z11	X12	Y12	Z12	X13	Y13	Z13	X14	Y14	Z14	X15	Y15	Z15	X16	Y16	Z16	X17	Y17	Z17	X18	Y18	Z18	X19	Y19	Z19	X20	Y20	Z20	X21	Y21	Z21	
18	0.6	-0.2547751559481807	1.8841772716304492	-0.607467821480639	-0.27035053914153867	1.8796964720322322	-0.5397176800939852																-0.23857298921771267	1.8887661293937827	-0.6784043635317154	-0.24639200189352828	1.7302152359111882	-0.6766692448860306													-0.2595749470896384	2.05455024942998	-0.6330398411131931	-0.2433519546654597	2.1203382678409035	-0.6053390591553118	-0.2825292729933839	2.05078172923098	-0.5391712525607802	-1.6346096214528818	1.872683331193409	0.9402333077740408	-0.2930018684498604	1.8880800716150163	-0.47309101735975395	-0.23594960448337102	2.0601476740490448	-0.7249074128606379	-0.230488705705439	1.9745297507884347	-0.757552250700004	-0.22117156901398347	1.8920624683486067	-0.760692478585638
19	0.6333333333333333	-0.25578657277941486	1.8857739887954625	-0.6108935884500286	-0.271126417142643	1.881269611422858	-0.543037481684458																-0.23857743127743938	1.8889298482079302	-0.6785692874234901	-0.2465677304442299	1.7304380444071925	-0.6771987120190819													-0.25957149006769725	2.0544172854885177	-0.6331176862447627	-0.24339294367047568	2.1202015750645797	-0.6053106421003448	-0.28246458234075456	2.0495772435907393	-0.5386568847270932	-1.6335608366516372	1.872578658090911	0.9382666958979564	-0.2930018684498604	1.8880800716150163	-0.47309101735975395	-0.236056680864042	2.0590747367811093	-0.7251311897813575	-0.23049920727225565	1.9748822385134734	-0.757913931736018	-0.2214822540156643	1.8946749914935694	-0.7609111989366565
20	0.6666666666666666	-0.255484323194754	1.886025052317316	-0.610715429372208	-0.2680240435825252	1.8826188511969915	-0.5421883207721132																-0.23841062444984867	1.890517610583359	-0.6785799955747857	-0.24674345899493152	1.7306608529031966	-0.6777281791521332													-0.2595871621122055	2.05446470288028	-0.6330784283565836	-0.24336234369470922	2.1203123666709414	-0.6053284712194026	-0.2825126619287902	2.0508462091781134	-0.5391811194526936	-1.6325120518503924	1.8724739849884129	0.9363000840218719	-0.2930018684498604	1.8880800716150163	-0.47309101735975395	-0.23597366456458835	2.0602480114356103	-0.724879850425025	-0.23039027393584544	1.9748205196781012	-0.7575656567746823	-0.22081733478310064	1.8930914802659518	-0.760598187682668
21	0.7	-0.2579249091659324	1.881619981214425	-0.6081180339427015	-0.27335792682483107	1.878075331401136	-0.5404807965732169																-0.24089838060688942	1.885794137919205	-0.675903823868415	-0.24674747713932935	1.7306173479895068	-0.6777848829762033													-0.25962871679321936	2.054474866203535	-0.6330379122811692	-0.24421091003965711	2.1205549175211114	-0.6082079624541177	-0.2835361542217815	2.049684875662318	-0.5416872141642672	-1.6314632670491478	1.8723693118859148	0.9343334721457875	-0.2930018684498604	1.8880800716150163	-0.47309101735975395	-0.23603146393752106	2.0590104872144215	-0.7249780513166794	-0.2301969728196222	1.9750664994856273	-0.7572791702935037	-0.2236966432303249	1.8939637688271878	-0.7809005105290654
22	0.7333333333333333	-0.2557049430113023	1.8840336326702007	-0.6107324592668785	-0.27117340120291805	1.8807020368157055	-0.5430645488239617																-0.23858326334806904	1.888669870894725	-0.6785839260346234	-0.24675149528372717	1.7305738430758169	-0.6778415868002734													-0.2595822612254675	2.055579318853949	-0.6334995054432357	-0.244120867384566	2.123004602569892	-0.6085903519275369	-0.28348308716351484	2.0508384985259878	-0.5421819254506943	-0.29590160967547363	1.9662784896017667	-0.4845750702134327	-0.30276682689906453	1.8936848714887848	-0.4151254988256541	-0.23520089229722488	2.0599580152789114	-0.7225857178657873	-0.2250694841306436	1.977460125343001	-0.7797462521525179	-1.049099271427267	1.8040236726786023	-0.013883963238634238
23	0.7666666666666667	-0.25876224045534124	1.8852696500348896	-0.6118140151433347	-0.27126209711371607	1.8805961073980475	-0.5430423487660302																-0.23888654892840092	1.8882854366864708	-0.678574911981209	-0.246755513428125	1.730530338162127	-0.6778982906243435													-0.25961375068150405	2.0556318606090365	-0.6336296449897706	-0.24412330056078688	2.123019010859379	-0.6086111329824834	-0.2814657484466351	2.0519963047615986	-0.5442751768433992	-0.30054474522492	1.976953725710248	-0.46837348008171215	-0.3183827666633593	1.9103515807011402	-0.37855580916579634	-0.2359074698399255	2.061465501002806	-0.7253484324976825	-0.2184536201587834	1.9867643382866664	-0.810394109794391	-0.9555772708630214	1.8206640542592438	-0.1692352151043981
24	0.8	-0.25783544989440277	1.8879033954846647	-0.6090084891884442	-0.27330055082495297	1.8817396618376392	-0.5411169791251744																-0.24070900314647098	1.8903268125847115	-0.6765349906167217	-0.24872178360256594	1.7325267094182963	-0.6758006223447804													-0.2596250553646182	2.0557116449825075	-0.6335309355583406	-0.24413573845617237	2.121720661572474	-0.6080855140041995	-0.28341961020140904	2.052144147846291	-0.5421368888260409	-0.31053512097020963	1.9837037018220671	-0.4446413857276296	-0.33160384412696314	1.9240462426028802	-0.3380899611758884	-0.23508445008731405	2.0614240539929893	-0.7224024010987777	-0.20893949984379986	1.9998656519206721	-0.832076668791964	-0.17955895912157444	1.93750296292605	-0.9347875764169765
25	0.8333333333333334	-0.25773744012426186	1.8845062072130798	-0.6085156280427301	-0.2711859481977524	1.8808813697455748	-0.54304694878916																-0.23865138258459637	1.8886393214567854	-0.6783910090017797	-0.24866750651864394	1.7326249740505435	-0.6755607370151757													-0.25959962646336704	2.055674699584607	-0.6335674566941821	-0.244105844839657	2.1217559183731303	-0.6080869967852824	-0.28352143733028456	2.049657785869155	-0.541663779673701	-0.32001501107693614	1.98702690600436	-0.4263296246702956	-0.3418385414376114	1.9359438010485586	-0.3051621080381231	-0.23296792000231656	2.0627634704498545	-0.7249831403817617	-0.20101668172889012	2.0045280149376636	-0.847379228256819	-0.16861041454596423	1.9480676549104217	-0.9671050020215514
26	0.8666666666666667	-0.25761401222651803	1.882484112409299	-0.6083434937772834	-0.2712710725006234	1.8775942817091886	-0.5426981663201772																-0.23864758282692491	1.885829423557657	-0.6781509427400341	-0.24861322943472194	1.7327232386827907	-0.6753208516855709													-0.2596225422790756	2.055690909619679	-0.6334698461479854	-0.24410715326845253	2.123116864963441	-0.6086134402216016	-0.28546419151153235	2.049646468567382	-0.5395593508033456	-0.3154452625197416	1.9913221237913739	-0.4221710065787752	-0.3424276133025945	1.9413394199779879	-0.2946900891914157	-0.23504873866814974	2.06271610172687	-0.7228136818223136	-0.20216348039902315	2.0097469170102755	-0.8423525452384225	-0.16621771072504776	1.9599289840740055	-0.9615284388017753
27	0.9	-0.25855951597305876	1.8831976009243157	-0.6113861087215905	-0.27118361769721705	1.8768619728027667	-0.5425403822738976																-0.23861751991607988	1.8852503883985532	-0.6780133461921152	-0.24855895235079994	1.7328215033150378	-0.6750809663559661													-0.25959581393090064	2.055718362921264	-0.6334245761910143	-0.24413063233955865	2.1230129514394087	-0.6085902366975006	-0.284498892664515	2.049562791118809	-0.5365513048222469	-0.31759289712264044	1.9902274013258634	-0.42791713499410766	-0.343369301569689	1.9375836725305358	-0.29673637545123155	-0.23295711077541847	2.0614563942488924	-0.7245136532481474	-0.19851546937611045	2.005596508826236	-0.8384159704285833	-0.9191716316882753	1.843259715944765	-0.22592148953703947
28	0.9333333333333333	-0.25877842912725174	1.8857289804713953	-0.6117848545317166	-0.27138696848962035	1.8795849312193238	-0.5430022671349918																-0.23894457630121138	1.8887088692290441	-0.6784450037308464	-0.24850467526687794	1.732919767947285	-0.6748410810263613													-0.2596218623048765	2.05573474420949	-0.633609145484232	-0.24322112231887014	2.122950164120864	-0.6057490099257411	-0.28358609229403864	2.0509277293044255	-0.5422821374569745	-0.31604076347343235	1.9855709361282337	-0.437774790203583	-0.34406888240981853	1.9272535938928854	-0.3175464875691681	-0.23301347324257807	2.0626970595331335	-0.7249704997300854	-0.20057326214385746	1.9983513909019404	-0.8233748273477962	-0.9587901096149916	1.8296468926197487	-0.15686918313071327
29	0.9666666666666667	-0.2583737256460438	1.8844227679446803	-0.6115724845901961	-0.2710654923664424	1.8793959902518533	-0.5429348602534502																-0.238554084644607	1.8876330882700203	-0.678346954237622	-0.24845039818295594	1.7330180325795321	-0.6746011956967566													-0.25954868282123456	2.054527522234751	-0.6331174971713055	-0.2432335896797717	2.121569760421804	-0.6051788941129821	-0.28151319971019095	2.0497541946711113	-0.5438095542405346	-0.31045692413977827	1.9801709981489977	-0.45163087018696635	-0.3346749100520251	1.9159791653337126	-0.35394917656463515	-0.23508948108374048	2.061315365355028	-0.722440096221996	-0.20576820083857772	1.9875473276497932	-0.7978311703441383	-1.0097511565683648	1.8134148992974852	-0.06419716802416024
30	1.0	-0.2566621222909701	1.8847679918486064	-0.6138117270087636	-0.27123121627588526	1.8788204060717202	-0.5427690120627745																-0.2395782010975682	1.886884907066164	-0.6813693269278793	-0.24839612109903395	1.7331162972117793	-0.6743613103671517													-0.2575266839692306	2.0545828945472477	-0.6351464270468115	-0.2432080858297082	2.1229592660271384	-0.6057086660272274	-0.2814016290176945	2.0499222111496507	-0.543767252324376	-1.671105657334321	1.8780760810700692	1.0028905175041583	-0.32199803654613957	1.8986644486888464	-0.38820415417194043	-0.23589905255685326	2.0601429017354684	-0.7249503762871229	-0.2119920825600619	1.9806047479572935	-0.7754828743991398	-1.0830682984688011	1.795789603957996	0.05497877488424801
31	1.0333333333333334	-0.25742524693310836	1.8802865327641922	-0.6079673761534177	-0.2710381944831851	1.8756695527897946	-0.5422754213004446																-0.23842584021784857	1.8820380978767375	-0.6776329240837617	-0.24834184401511197	1.7332145618440264	-0.674121425037547													-0.25964556045087483	2.054324359013566	-0.633138800330277	-0.24323205909113552	2.1228890540494025	-0.6056935092782526	-0.2815721007846153	2.050940739047164	-0.5443600992367328	-1.631368446532375	1.872992939932086	0.9338611312358712	-0.3141084247300778	1.8859653797963545	-0.440685658057153	-0.2361186611119322	2.0589507261596554	-0.7250002987842837	-0.22269016112148218	1.9702612266596382	-0.7496906274996008	-0.20454662477514768	1.8888125021099635	-0.7612425287847346
32	1.0666666666666667	-0.2575721810369735	1.8814048971606765	-0.6081455430461766	-0.2711850283672573	1.8766001256872238	-0.5424504122749565																-0.2385565974111473	1.883393851664682	-0.6778291358448744	-0.24828756693118997	1.7333128264762736	-0.6738815397079422													-0.25958799280962847	2.0544231074169543	-0.6329484002845877	-0.24321128899875427	2.1229786444756407	-0.6056682421031632	-0.2825024372081653	2.0496249412598515	-0.5385985029867745	-1.6354301108763467	1.8712878507407502	0.9437790422364787	-0.2959450220218284	1.880741624891275	-0.46486241434286646	-0.236047500159109	2.0588551186567257	-0.724943027053104	-0.2286874191575908	1.9713954259600868	-0.7509261069828074	-0.2239765150483925	1.8887114181537314	-0.7611381345687025
